<?xml version="1.0" encoding="UTF-8" standalone="no" ?>
<!DOCTYPE svg PUBLIC "-//W3C//DTD SVG 1.1//EN" "http://www.w3.org/Graphics/SVG/1.1/DTD/svg11.dtd">
<svg xmlns="http://www.w3.org/2000/svg" xmlns:xlink="http://www.w3.org/1999/xlink" version="1.1" width="100" height="50.62608999999999" viewBox="270 171.03625828628896 100 50.62608999999999" xml:space="preserve">
<desc>Created with Fabric.js 4.6.0</desc>
<defs>
</defs>
<g transform="matrix(1.25 0 0 1.25 320 196.35)" id="VjSx-yH9gAqwgQBJrP25Z"  >
<g style="" vector-effect="non-scaling-stroke"   >
		<g transform="matrix(1 0 0 1 0 0)" id="Y6PEYjvHDw08c62xnIpzy"  >
<path style="stroke: rgb(0,0,0); stroke-width: 1; stroke-dasharray: none; stroke-linecap: butt; stroke-dashoffset: 0; stroke-linejoin: miter; stroke-miterlimit: 4; fill: none; fill-rule: nonzero; opacity: 1;" vector-effect="non-scaling-stroke"  transform=" translate(-39.43, -19.71)" d="M 27.35 13.67 L 51.51 13.67 L 39.43 25.75 L 27.35 13.67" stroke-linecap="round" />
</g>
		<g transform="matrix(1 0 0 1 -6.51 6.51)" id="XPtZCxIac60UCxGFch7Zo"  >
<path style="stroke: rgb(0,0,0); stroke-width: 1; stroke-dasharray: none; stroke-linecap: butt; stroke-dashoffset: 0; stroke-linejoin: miter; stroke-miterlimit: 4; fill: none; fill-rule: nonzero; opacity: 1;" vector-effect="non-scaling-stroke"  transform=" translate(-32.92, -26.23)" d="M 26.88 38.3 L 38.96 26.22 L 26.88 14.15 L 26.88 38.3" stroke-linecap="round" />
</g>
		<g transform="matrix(1 0 0 1 0 0)" id="rRLD8WJd-mfVhJok7_uyS"  >
<path style="stroke: rgb(0,0,0); stroke-width: 1; stroke-dasharray: none; stroke-linecap: butt; stroke-dashoffset: 0; stroke-linejoin: miter; stroke-miterlimit: 4; fill: none; fill-rule: nonzero; opacity: 1;" vector-effect="non-scaling-stroke"  transform=" translate(-39.43, -19.71)" d="M 39.43 26.69 L 26.69 39.43 L 0 39.43 L 39.43 0 L 78.86 39.43 L 52.17 39.43 L 39.43 26.69" stroke-linecap="round" />
</g>
		<g transform="matrix(1 0 0 1 6.5 6.51)" id="lRheGkP3LW2-183Lhxeh1"  >
<path style="stroke: rgb(0,0,0); stroke-width: 1; stroke-dasharray: none; stroke-linecap: butt; stroke-dashoffset: 0; stroke-linejoin: miter; stroke-miterlimit: 4; fill: none; fill-rule: nonzero; opacity: 1;" vector-effect="non-scaling-stroke"  transform=" translate(-45.93, -26.23)" d="M 39.89 26.22 L 51.97 14.15 L 51.97 38.3 L 39.89 26.22" stroke-linecap="round" />
</g>
		<g transform="matrix(1 0 0 1 25.75 13.02)" id="dpJ-pz25QUjPJCrp6cNg_"  >
<path style="stroke: rgb(0,0,0); stroke-width: 1; stroke-dasharray: none; stroke-linecap: butt; stroke-dashoffset: 0; stroke-linejoin: miter; stroke-miterlimit: 4; fill: none; fill-rule: nonzero; opacity: 1;" vector-effect="non-scaling-stroke"  transform=" translate(-65.18, -32.73)" d="M 53.1 38.77 L 65.18 26.69 L 77.26 38.77 L 53.1 38.77" stroke-linecap="round" />
</g>
		<g transform="matrix(1 0 0 1 19.24 6.5)" id="CqUeDtLQtF5MesDL8Bu6T"  >
<path style="stroke: rgb(0,0,0); stroke-width: 1; stroke-dasharray: none; stroke-linecap: butt; stroke-dashoffset: 0; stroke-linejoin: miter; stroke-miterlimit: 4; fill: none; fill-rule: nonzero; opacity: 1;" vector-effect="non-scaling-stroke"  transform=" translate(-58.67, -26.22)" d="M 52.63 14.14 L 64.71 26.22 L 52.63 38.3 L 52.63 14.14" stroke-linecap="round" />
</g>
		<g transform="matrix(1 0 0 1 0 -12.74)" id="VBcPJ_QfbM7YOZ8YHwznX"  >
<path style="stroke: rgb(0,0,0); stroke-width: 1; stroke-dasharray: none; stroke-linecap: butt; stroke-dashoffset: 0; stroke-linejoin: miter; stroke-miterlimit: 4; fill: none; fill-rule: nonzero; opacity: 1;" vector-effect="non-scaling-stroke"  transform=" translate(-39.43, -6.97)" d="M 39.43 0.94 L 51.51 13.01 L 27.35 13.01 L 39.43 0.94" stroke-linecap="round" />
</g>
		<g transform="matrix(1 0 0 1 -19.25 6.51)" id="TjY5-ZaPDgIubmNsQhIPo"  >
<path style="stroke: rgb(0,0,0); stroke-width: 1; stroke-dasharray: none; stroke-linecap: butt; stroke-dashoffset: 0; stroke-linejoin: miter; stroke-miterlimit: 4; fill: none; fill-rule: nonzero; opacity: 1;" vector-effect="non-scaling-stroke"  transform=" translate(-20.18, -26.23)" d="M 14.14 26.22 L 26.22 14.15 L 26.22 38.3 L 14.14 26.22" stroke-linecap="round" />
</g>
		<g transform="matrix(1 0 0 1 -25.76 13.02)" id="z4xKzPS2wcxwv1tn7VBtp"  >
<path style="stroke: rgb(0,0,0); stroke-width: 1; stroke-dasharray: none; stroke-linecap: butt; stroke-dashoffset: 0; stroke-linejoin: miter; stroke-miterlimit: 4; fill: none; fill-rule: nonzero; opacity: 1;" vector-effect="non-scaling-stroke"  transform=" translate(-13.67, -32.73)" d="M 13.68 26.69 L 25.75 38.77 L 1.6 38.77 L 13.68 26.69" stroke-linecap="round" />
</g>
</g>
</g>
</svg>