<svg xmlns="http://www.w3.org/2000/svg" width="320" height="40.146" viewBox="0 0 320 40.146">
  <g id="Grupo_1" data-name="Grupo 1" transform="translate(-36.183 -34.378)" opacity="0.84">
    <g id="Grupo_12" data-name="Grupo 12" transform="translate(36.183 34.378)">
      <path id="Caminho_11" data-name="Caminho 11" d="M18.006,9l12.08,12.08L42.162,9ZM17.537,33.63l12.08-12.08L17.537,9.473ZM30.085,22.018,17.344,34.759l-26.688,0L30.085-4.673l39.427,39.43H42.824Zm.465-.468L42.628,33.627V9.473ZM43.757,34.095H67.917L55.834,22.018ZM43.289,9.47V33.627L55.369,21.55ZM30.085-3.736,18.006,8.34H42.162ZM4.8,21.55,16.876,33.63V9.473Zm-.468.468L-7.749,34.095H16.411Z" transform="translate(9.344 4.673)" fill="#fff"/>
    </g>
    <g id="Grupo_13" data-name="Grupo 13" transform="translate(123.385 47.859)">
      <path id="Caminho_12" data-name="Caminho 12" d="M138.383,15.393l-9.89-21.988a1.987,1.987,0,0,0-2.011-1.235,2.028,2.028,0,0,0-2.008,1.235l-9.893,21.988a2.082,2.082,0,0,0-.234.925,2.185,2.185,0,0,0,2.245,2.2,2.09,2.09,0,0,0,1.976-1.273l1.671-3.588,3.378-8.067,2.866-7.007L130.5,8.4h-5.892c-.547,1.379-1.18,2.953-1.66,4.133H132.2l2.2,4.715a2.032,2.032,0,0,0,1.97,1.273,2.182,2.182,0,0,0,2.239-2.2,2.04,2.04,0,0,0-.231-.925m-40.846,0L87.644-6.595A1.982,1.982,0,0,0,85.633-7.83a2.03,2.03,0,0,0-2,1.235l-9.89,21.988a2.012,2.012,0,0,0-.237.925,2.185,2.185,0,0,0,2.245,2.2,2.082,2.082,0,0,0,1.97-1.273l1.677-3.588L82.761,5.59l2.871-7.007L89.654,8.4H83.762c-.55,1.379-1.183,2.953-1.663,4.133h9.252l2.2,4.715a2.04,2.04,0,0,0,1.976,1.273,2.182,2.182,0,0,0,2.239-2.2,2.04,2.04,0,0,0-.231-.925m-145.313,0L-57.67-6.595a1.974,1.974,0,0,0-2-1.235,2.036,2.036,0,0,0-2.014,1.235l-9.887,21.988a2.049,2.049,0,0,0-.237.925,2.183,2.183,0,0,0,2.242,2.2A2.083,2.083,0,0,0-67.6,17.246l1.677-3.588,3.372-8.067,2.874-7.007L-55.659,8.4h-5.889c-.55,1.379-1.185,2.953-1.665,4.133h9.255l2.2,4.715a2.03,2.03,0,0,0,1.97,1.273,2.184,2.184,0,0,0,2.239-2.2,2.078,2.078,0,0,0-.231-.925m5.711,2.819a2.407,2.407,0,0,1-2.394-2.394V-5.436A2.407,2.407,0,0,1-42.066-7.83a2.343,2.343,0,0,1,2.321,2.394v19.2h11.281a2.2,2.2,0,0,1,2.2,2.207,2.257,2.257,0,0,1-2.2,2.239ZM-10.747-3.2h-8.038V3.875h8.038A3.418,3.418,0,0,0-7,.4,3.524,3.524,0,0,0-10.747-3.2m-.659,11.439h-7.379v7.923a2.342,2.342,0,0,1-2.359,2.353A2.337,2.337,0,0,1-23.5,16.166V-5.166A2.337,2.337,0,0,1-21.144-7.52h9.738C-4.99-7.52-2.247-3.966-2.247.4S-4.99,8.242-11.406,8.242M36.392-3.2H28.161V3.875h8.231A3.533,3.533,0,0,0,40.141.246,3.414,3.414,0,0,0,36.392-3.2m8.5,19.362a2.336,2.336,0,0,1-2.35,2.353,2.119,2.119,0,0,1-2.09-1.27L35.927,7.932H28.161v8.234a2.358,2.358,0,0,1-4.715,0V-5.166A2.342,2.342,0,0,1,25.805-7.52h9.931c6.413,0,9.153,3.164,9.153,7.724a7.028,7.028,0,0,1-4.247,6.878l3.981,8.076a2.284,2.284,0,0,1,.266,1.007m26.068-2.128a13.618,13.618,0,0,1-10.549,4.636c-8.231,0-13.215-6.03-13.215-13.33,0-7.8,5.64-13.332,13.139-13.332A12.174,12.174,0,0,1,68.943-4.7a2.191,2.191,0,0,1,.741,1.584A2.08,2.08,0,0,1,67.556-.954a2.676,2.676,0,0,1-1.545-.539,8.641,8.641,0,0,0-5.678-2.122c-5.067,0-8.386,3.82-8.386,8.96,0,5.254,3.091,9.2,8.462,9.2a9.563,9.563,0,0,0,6.451-2.318V8.242H63.736a2.127,2.127,0,1,1,0-4.253H69.1a2.39,2.39,0,0,1,2.4,2.4V12.53a2.118,2.118,0,0,1-.544,1.507M115.119-3.079h-6.606V16.127a2.4,2.4,0,0,1-2.394,2.391,2.342,2.342,0,0,1-2.321-2.391V-3.079H97.153a2.234,2.234,0,0,1-2.239-2.2,2.221,2.221,0,0,1,2.239-2.239h17.966a2.244,2.244,0,0,1,2.245,2.239,2.213,2.213,0,0,1-2.245,2.2m35.9,21.756a15.458,15.458,0,0,1-8.921-2.7,3,3,0,0,1-1.314-2.242,1.875,1.875,0,0,1,1.97-2.011,2.268,2.268,0,0,1,1.194.348c2.09,1.314,3.518,2.476,7.151,2.476,3.709,0,5.178-1.51,5.178-3.249,0-1.9-1.5-2.857-6.147-4.1-6.99-1.853-9.08-4.092-9.08-7.956,0-4.715,4.06-7.227,10.2-7.227a19.7,19.7,0,0,1,4.947.7c1.78.5,4.016,1.622,4.016,3.167A1.957,1.957,0,0,1,158.281-2a2,2,0,0,1-.925-.2,13.989,13.989,0,0,0-6.071-1.619c-3.436,0-5.523.925-5.523,2.939,0,1.888,1.545,2.549,6.182,3.9,5.3,1.545,9.041,3.053,9.041,8,0,4.481-3.4,7.654-9.969,7.654m-130.9-3.284L10.231-6.595A1.983,1.983,0,0,0,8.217-7.83a2.027,2.027,0,0,0-2,1.235L-3.681,15.393a2.04,2.04,0,0,0-.231.925,2.184,2.184,0,0,0,2.242,2.2A2.075,2.075,0,0,0,.3,17.246l1.68-3.588L5.348,5.59,8.217-1.417,12.238,8.4H6.349C5.8,9.776,5.161,11.351,4.687,12.53h9.252l2.2,4.715a2.03,2.03,0,0,0,1.97,1.273,2.184,2.184,0,0,0,2.239-2.2,2.078,2.078,0,0,0-.231-.925" transform="translate(71.813 7.988)" fill="#fff"/>
    </g>
  </g>
</svg>
